<svg width="160" height="160" viewBox="0 0 160 160" fill="none" xmlns="http://www.w3.org/2000/svg">
<path d="M26.724 75.8818H17V105.765H26.724V75.8818Z" fill="white"/>
<path d="M139.24 123.361L138.981 124.49C138.609 126.119 137.25 127.34 135.59 127.537L87.796 133.223C83.871 133.701 79.934 132.414 77.048 129.71L55.213 109.257C52.813 107.009 49.667 105.724 46.377 105.65L38.849 105.481V75.8809H65.595C69.502 75.8809 73.282 77.2729 76.257 79.8079L81.164 83.9899C85.488 69.1929 98.253 56.0239 102.549 51.9009C102.874 51.9909 103.212 52.0379 103.565 52.0379H119.15C119.502 52.0379 119.843 51.9899 120.168 51.9009C125.372 56.8939 143.001 75.1639 143.001 93.5149C143.001 106.748 130.751 115.441 119.515 118.423L135.405 118.517C137.938 118.531 139.808 120.891 139.241 123.36L139.24 123.361Z" fill="white"/>
<path d="M38.849 71.9873H26.724V108.515H38.849V71.9873Z" fill="#37BCF6" stroke="#4A4A4A" stroke-width="2" stroke-linecap="round" stroke-linejoin="round"/>
<path d="M38.849 75.8823H65.595C69.503 75.8823 73.283 77.2743 76.257 79.8093L109.755 108.359C111.463 109.815 111.73 112.354 110.361 114.133L110.318 114.189C109.057 115.829 106.792 116.31 104.973 115.324L79.667 101.614" stroke="#4A4A4A" stroke-width="2" stroke-linecap="round" stroke-linejoin="round"/>
<path d="M85.325 104.678L93.172 118.27L135.404 118.518C137.938 118.533 139.807 120.892 139.24 123.362L138.982 124.49C138.608 126.12 137.251 127.34 135.59 127.537L87.796 133.223C83.87 133.701 79.934 132.415 77.048 129.711L55.213 109.258C52.812 107.009 49.666 105.725 46.377 105.651L38.849 105.483" stroke="#4A4A4A" stroke-width="2" stroke-linecap="round" stroke-linejoin="round"/>
<path d="M26.724 75.8823H17" stroke="#4A4A4A" stroke-width="2" stroke-linecap="round" stroke-linejoin="round"/>
<path d="M26.724 105.765H17" stroke="#4A4A4A" stroke-width="2" stroke-linecap="round" stroke-linejoin="round"/>
<path d="M126.146 32.1142C126.146 36.2162 118.785 38.9732 118.247 44.3662H104.469C103.93 38.9722 96.568 36.2162 96.568 32.1142C96.568 28.6852 98.857 27.3812 99.963 27.3812C102.25 27.3812 104.415 29.5012 105.92 29.5012C107.425 29.5012 107.286 26.6782 111.357 26.6782C115.428 26.6782 115.287 29.5012 116.794 29.5012C118.301 29.5012 120.466 27.3812 122.751 27.3812C123.859 27.3812 126.146 28.6852 126.146 32.1142Z" fill="#D8D8D8" stroke="#4A4A4A" stroke-width="2" stroke-linecap="round" stroke-linejoin="round"/>
<path d="M122.987 48.2032C122.987 49.2622 122.557 50.2212 121.864 50.9162C121.399 51.3792 120.819 51.7242 120.167 51.9022C119.843 51.9922 119.503 52.0392 119.151 52.0392H103.565C103.213 52.0392 102.873 51.9922 102.549 51.9022C100.923 51.4562 99.728 49.9692 99.728 48.2022C99.728 47.1432 100.158 46.1842 100.851 45.4892C101.546 44.7962 102.505 44.3662 103.564 44.3662H119.15C121.269 44.3662 122.987 46.0842 122.987 48.2032Z" fill="#7AD2FA" stroke="#4A4A4A" stroke-width="2" stroke-linecap="round" stroke-linejoin="round"/>
<path d="M81.165 83.9923C85.487 69.1953 98.253 56.0253 102.549 51.9023C102.873 51.9923 103.213 52.0393 103.565 52.0393H119.151C119.503 52.0393 119.843 51.9923 120.167 51.9023C125.372 56.8953 143 75.1633 143 93.5173C143 106.751 130.751 115.443 119.515 118.424" stroke="#4A4A4A" stroke-width="2" stroke-linecap="round" stroke-linejoin="round"/>
<path d="M102.841 118.327H102.84" stroke="#4A4A4A" stroke-width="2" stroke-linecap="round" stroke-linejoin="round"/>
<path d="M113.934 71.1813C115.051 71.3863 116.032 71.7113 116.876 72.1563C117.719 72.6013 118.426 73.1083 118.997 73.6783C119.567 74.2483 120 74.8473 120.297 75.4743C120.593 76.1013 120.764 76.6883 120.81 77.2353C120.833 77.5093 120.747 77.7313 120.553 77.9023C120.359 78.0733 120.137 78.1593 119.886 78.1593H117.492C117.104 78.1593 116.813 78.0853 116.62 77.9373C116.426 77.7893 116.249 77.5903 116.09 77.3383C115.748 76.7683 115.229 76.2723 114.534 75.8503C113.838 75.4283 112.807 75.2173 111.439 75.2173C110.846 75.2173 110.281 75.2803 109.746 75.4053C109.21 75.5303 108.742 75.7133 108.344 75.9523C107.945 76.1913 107.631 76.4823 107.403 76.8243C107.175 77.1663 107.061 77.5543 107.061 77.9873C107.061 78.5123 107.186 78.9393 107.437 79.2703C107.688 79.6013 108.092 79.8863 108.651 80.1253C109.209 80.3643 109.928 80.5873 110.806 80.7923C111.684 80.9973 112.75 81.2373 114.004 81.5103C115.372 81.8073 116.529 82.1553 117.476 82.5533C118.422 82.9523 119.198 83.4313 119.802 83.9903C120.406 84.5493 120.839 85.1933 121.102 85.9223C121.364 86.6523 121.495 87.4843 121.495 88.4193C121.495 89.3083 121.324 90.1413 120.982 90.9163C120.64 91.6923 120.144 92.3873 119.494 93.0033C118.844 93.6193 118.051 94.1323 117.117 94.5423C116.182 94.9523 115.121 95.2373 113.936 95.3973V97.7233C113.936 97.9743 113.845 98.1903 113.662 98.3733C113.479 98.5553 113.263 98.6473 113.012 98.6473H110.242C109.991 98.6473 109.774 98.5563 109.592 98.3733C109.409 98.1903 109.318 97.9743 109.318 97.7233V95.3973C108.292 95.2373 107.328 94.9693 106.428 94.5933C105.527 94.2173 104.74 93.7553 104.068 93.2083C103.395 92.6613 102.854 92.0283 102.443 91.3103C102.033 90.5923 101.804 89.8003 101.759 88.9333C101.736 88.6593 101.822 88.4373 102.016 88.2663C102.209 88.0953 102.432 88.0093 102.683 88.0093H105.077C105.464 88.0093 105.761 88.0773 105.966 88.2143C106.171 88.3513 106.342 88.5563 106.479 88.8303C106.638 89.1273 106.832 89.4233 107.061 89.7193C107.289 90.0153 107.597 90.2783 107.984 90.5063C108.372 90.7343 108.856 90.9223 109.438 91.0703C110.02 91.2193 110.743 91.2923 111.61 91.2923C112.294 91.2923 112.955 91.2413 113.594 91.1383C114.232 91.0353 114.791 90.8643 115.27 90.6253C115.749 90.3863 116.136 90.0893 116.433 89.7363C116.729 89.3833 116.878 88.9443 116.878 88.4193C116.878 87.9183 116.718 87.5073 116.399 87.1883C116.079 86.8693 115.595 86.5953 114.945 86.3673C114.295 86.1393 113.491 85.9223 112.534 85.7173C111.576 85.5123 110.47 85.2503 109.216 84.9303C108.076 84.6563 107.078 84.3313 106.223 83.9553C105.368 83.5793 104.661 83.1173 104.102 82.5703C103.543 82.0233 103.127 81.3793 102.854 80.6383C102.58 79.8973 102.444 79.0133 102.444 77.9873C102.444 77.0983 102.615 76.2773 102.957 75.5243C103.299 74.7713 103.772 74.0933 104.376 73.4893C104.98 72.8853 105.704 72.3833 106.548 71.9843C107.392 71.5853 108.315 71.2953 109.319 71.1123V68.7863C109.319 68.5353 109.41 68.3193 109.593 68.1363C109.775 67.9543 109.992 67.8623 110.243 67.8623H113.013C113.264 67.8623 113.48 67.9533 113.663 68.1363C113.845 68.3193 113.937 68.5353 113.937 68.7863V71.1803L113.934 71.1813Z" fill="#37BCF6"/>
</svg>
